<?xml version="1.0" encoding="UTF-8" standalone="no" ?>
<!DOCTYPE svg PUBLIC "-//W3C//DTD SVG 1.1//EN" "http://www.w3.org/Graphics/SVG/1.1/DTD/svg11.dtd">
<svg xmlns="http://www.w3.org/2000/svg" xmlns:xlink="http://www.w3.org/1999/xlink" version="1.1" width="32" height="32" viewBox="0 0 32 32" xml:space="preserve">
<desc>Created with Fabric.js 5.3.0</desc>
<defs>
</defs>
<g transform="matrix(1 0 0 1 10.4608256108 14.0348070207)" id="MsBhLYc60LO1LeWVl3c4K"  >
<path style="stroke: rgb(0,0,0); stroke-width: 1; stroke-dasharray: none; stroke-linecap: round; stroke-dashoffset: 0; stroke-linejoin: round; stroke-miterlimit: 10; fill: none; fill-rule: nonzero; opacity: 1;"  transform=" translate(-10.4608256108, -14.0348070207)" d="M 9.724673125526525 3.8841642237123124 Q 9.723673125526526 3.8831642237123125 9.660488626790215 3.8199797249760024 Q 9.597304128053905 3.756795226239692 9.513058129738825 3.672549227924612 Q 9.428812131423745 3.588303229609532 9.302443133951126 3.482995731715682 Q 9.176074136478507 3.377688233821832 9.049705139005885 3.293442235506752 Q 8.923336141533264 3.209196237191672 8.860151642796955 3.188134737612902 Q 8.796967144060647 3.167073238034132 8.754844144903105 3.124950238876592 Q 8.712721145745563 3.0828272397190517 8.649536647009255 3.061765740140282 Q 8.586352148272946 3.040704240561512 8.502106149957866 2.9985812414039716 Q 8.417860151642786 2.9564582422464314 8.312552653748936 2.9353967426676615 Q 8.207245155855086 2.9143352430888916 8.101937657961235 2.8722122439313518 Q 7.996630160067385 2.830089244773812 7.912384161752305 2.809027745195042 Q 7.828138163437226 2.787966245616272 7.743892165122144 2.766904746037502 Q 7.659646166807063 2.7458432464587315 7.554338668913214 2.7247817468799616 Q 7.4490311710193655 2.7037202473011916 7.301600673967975 2.6826587477224217 Q 7.154170176916585 2.661597248143652 7.027801179443964 2.640535748564882 Q 6.901432181971343 2.619474248986112 6.796124684077494 2.5984127494073417 Q 6.690817186183645 2.5773512498285713 6.606571187868564 2.5773512498285713 Q 6.522325189553483 2.5773512498285713 6.480202190395943 2.5773512498285713 Q 6.438079191238403 2.5773512498285713 6.395956192080863 2.5773512498285713 Q 6.353833192923323 2.5773512498285713 6.311710193765784 2.5773512498285713 Q 6.269587194608244 2.5773512498285713 6.206402695871933 2.5773512498285713 Q 6.143218197135623 2.5773512498285713 6.080033698399314 2.5773512498285713 Q 6.016849199663005 2.5773512498285713 5.9326032013479235 2.5984127494073417 Q 5.848357203032842 2.619474248986112 5.785172704296533 2.661597248143652 Q 5.7219882055602245 2.7037202473011916 5.658803706823914 2.7247817468799616 Q 5.595619208087603 2.7458432464587315 5.532434709351293 2.766904746037502 Q 5.469250210614982 2.787966245616272 5.3850042122999024 2.830089244773812 Q 5.300758213984823 2.8722122439313518 5.195450716090972 2.8932737435101217 Q 5.090143218197122 2.9143352430888916 5.005897219882042 2.9775197418252017 Q 4.921651221566963 3.040704240561512 4.837405223251883 3.061765740140282 Q 4.7531592249368035 3.0828272397190517 4.626790227464184 3.146011738455362 Q 4.500421229991565 3.209196237191672 4.437236731255254 3.272380735927982 Q 4.3740522325189435 3.3355652346642923 4.331929233361404 3.4198112329793724 Q 4.289806234203864 3.5040572312944525 4.226621735467553 3.567241730030762 Q 4.163437236731243 3.630426228767072 4.121314237573703 3.693610727503382 Q 4.079191238416163 3.756795226239692 4.0160067396798524 3.883164223712312 Q 3.952822240943542 4.009533221184932 3.910699241786002 4.0937792195000124 Q 3.8685762426284622 4.178025217815092 3.847514743049693 4.262271216130172 Q 3.826453243470924 4.346517214445252 3.8053917438921534 4.451824712339102 Q 3.7843302443133826 4.557132210232952 3.7632687447346136 4.6624397081268025 Q 3.7422072451558446 4.767747206020652 3.7422072451558446 4.851993204335733 Q 3.7422072451558446 4.936239202650813 3.7422072451558446 4.999423701387123 Q 3.7422072451558446 5.0626082001234325 3.721145745577074 5.146854198438513 Q 3.700084245998303 5.2311001967535935 3.700084245998303 5.357469194226213 Q 3.700084245998303 5.483838191698832 3.721145745577074 5.589145689592683 Q 3.7422072451558446 5.694453187486533 3.7632687447346136 5.8208221849591535 Q 3.7843302443133826 5.947191182431774 3.8053917438921534 6.094621679483163 Q 3.826453243470924 6.2420521765345525 3.868576242628464 6.452667172322253 Q 3.910699241786004 6.663282168109954 3.9738837405223126 6.852835664318884 Q 4.0370682392586215 7.042389160527814 4.121314237573703 7.274065655894284 Q 4.205560235888784 7.505742151260754 4.289806234203864 7.695295647469684 Q 4.3740522325189435 7.884849143678614 4.458298230834023 8.074402639887545 Q 4.542544229149103 8.263956136096475 4.605728727885413 8.411386633147865 Q 4.668913226621724 8.558817130199255 4.732097725358033 8.727309126829415 Q 4.795282224094342 8.895801123459574 4.942712721145732 9.127477618826044 Q 5.090143218197122 9.359154114192513 5.258635214827283 9.548707610401443 Q 5.427127211457444 9.738261106610373 5.616680707666374 9.948876102398074 Q 5.806234203875304 10.159491098185775 6.016849199663003 10.370106093973474 Q 6.227464195450702 10.580721089761173 6.395956192080863 10.728151586812563 Q 6.564448188711024 10.875582083863954 6.754001684919954 11.023012580915344 Q 6.943555181128884 11.170443077966734 7.133108677337814 11.296812075439355 Q 7.322662173546744 11.423181072911976 7.575400168491985 11.612734569120907 Q 7.828138163437226 11.802288065329837 8.059814658803695 11.949718562381227 Q 8.291491154170165 12.097149059432617 8.502106149957864 12.244579556484005 Q 8.712721145745563 12.392010053535394 8.902274641954493 12.476256051850475 Q 9.091828138163423 12.560502050165557 9.260320134793584 12.623686548901865 Q 9.428812131423745 12.686871047638174 9.681550126368986 12.771117045953254 Q 9.934288121314227 12.855363044268334 10.123841617523157 12.939609042583415 Q 10.313395113732087 13.023855040898496 10.502948609941017 13.087039539634805 Q 10.692502106149947 13.150224038371114 10.903117101937646 13.213408537107425 Q 11.113732097725345 13.276593035843735 11.261162594776735 13.318716035001275 Q 11.408593091828125 13.360839034158815 11.598146588037055 13.402962033316355 Q 11.787700084245985 13.445085032473894 12.040438079191226 13.508269531210205 Q 12.293176074136467 13.571454029946516 12.482729570345397 13.613577029104055 Q 12.672283066554327 13.655700028261595 12.819713563605717 13.697823027419135 Q 12.967144060657107 13.739946026576675 13.156697556866037 13.845253524470525 Q 13.346251053074967 13.950561022364376 13.535804549283897 14.055868520258226 Q 13.725358045492827 14.161176018152076 13.893850042122986 14.308606515203467 Q 14.062342038753146 14.456037012254857 14.315080033698386 14.645590508463787 Q 14.567818028643627 14.835144004672717 14.778433024431328 15.066820500039187 Q 14.989048020219029 15.298496995405657 15.136478517270419 15.488050491614587 Q 15.283909014321809 15.677603987823517 15.431339511373197 15.888218983611216 Q 15.578770008424586 16.098833979398915 15.747262005054747 16.351571974344154 Q 15.915754001684908 16.604309969289396 16.063184498736298 16.835986464655868 Q 16.210614995787687 17.067662960022336 16.400168491996617 17.341462454546345 Q 16.589721988205547 17.61526194907036 16.695029486099397 17.783753945700518 Q 16.800336983993247 17.952245942330677 16.884582982308327 18.141799438539607 Q 16.968828980623407 18.331352934748537 17.01095197978095 18.499844931378696 Q 17.05307497893849 18.668336928008856 17.095197978096028 18.878951923796556 Q 17.137320977253566 19.089566919584257 17.158382476832337 19.258058916214416 Q 17.179443976411108 19.42655091284458 17.20050547598988 19.679288907789818 Q 17.22156697556865 19.932026902735057 17.22156697556865 20.142641898522758 Q 17.22156697556865 20.35325689431046 17.20050547598988 20.563871890098156 Q 17.179443976411108 20.774486885885857 17.1162594776748 21.00616338125233 Q 17.05307497893849 21.2378398766188 16.46335299073293 22.16454585808468 Q 15.873631002527366 23.09125183955056 15.852569502948597 23.11231333912933 Q 15.831508003369828 23.1333748387081 15.747262005054749 23.21762083702318 Q 15.663016006739669 23.30186683533826 15.473462510530739 23.51248183112596 Q 15.283909014321809 23.72309682691366 15.115417017691648 23.933711822701362 Q 14.946925021061487 24.14432681848906 14.757371524852557 24.33388031469799 Q 14.567818028643627 24.52343381090692 14.378264532434697 24.64980280837954 Q 14.188711036225767 24.776171805852158 13.978096040438066 24.90254080332478 Q 13.767481044650365 25.0289098007974 13.535804549283895 25.13421729869125 Q 13.304128053917426 25.2395247965851 13.114574557708496 25.32377079490018 Q 12.925021061499566 25.40801679321526 12.693344566133096 25.450139792372802 Q 12.461668070766626 25.49226279153034 12.251053074978927 25.49226279153034 Q 12.040438079191228 25.49226279153034 11.829823083403527 25.49226279153034 Q 11.619208087615826 25.49226279153034 11.366470092670586 25.47120129195157 Q 11.113732097725345 25.4501397923728 10.945240101095186 25.4501397923728 Q 10.776748104465026 25.4501397923728 10.629317607413636 25.42907829279403 Q 10.481887110362246 25.40801679321526 10.292333614153316 25.36589379405772 Q 10.102780117944386 25.32377079490018 9.850042122999145 25.260586296163872 Q 9.597304128053905 25.19740179742756 9.365627632687435 25.134217298691247 Q 9.133951137320965 25.07103279995494 8.902274641954495 25.00784830121863 Q 8.670598146588025 24.94466380248232 8.481044650379095 24.881479303746012 Q 8.291491154170165 24.8182948050097 8.165122156697546 24.73404880669462 Q 8.038753159224926 24.64980280837954 7.891322662173536 24.54449531048569 Q 7.743892165122146 24.43918781259184 7.575400168491985 24.22857281680414 Q 7.406908171861824 24.017957821016438 7.259477674810434 23.828404324807508 Q 7.1120471777590435 23.638850828598578 6.985678180286424 23.47035883196842 Q 6.859309182813805 23.30186683533826 6.817186183656265 23.1333748387081 Q 6.775063184498725 22.964882842077937 6.711878685762414 22.7121448471327 Q 6.648694187026104 22.45940685218746 6.543386689132253 22.03817686061206 Q 6.438079191238403 21.61694686903666 6.311710193765784 21.27996287577634 Q 6.185341196293164 20.94297888251602 6.143218197135624 20.73236388672832 Q 6.1010951979780845 20.521748890940618 6.058972198820545 20.374318393889226 Q 6.016849199663005 20.226887896837837 5.995787700084234 20.037334400628907 Q 5.974726200505463 19.847780904419977 5.9326032013479235 19.595042909474735 Q 5.890480202190384 19.342304914529496 5.890480202190384 19.173812917899337 Q 5.890480202190384 19.005320921269178 5.869418702611613 18.75258292632394 Q 5.848357203032842 18.499844931378696 5.869418702611613 18.37347593390608 Q 5.890480202190384 18.247106936433457 5.9115417017691545 18.141799438539607 Q 5.932603201347925 18.036491940645757 5.974726200505465 17.99436894148822 Q 6.016849199663005 17.952245942330677 6.016849199663005 17.910122943173135 Q 6.016849199663005 17.867999944015597 6.016849199663005 17.82587694485806 Q 6.016849199663005 17.783753945700518 6.037910699241774 17.720569446964205 Q 6.058972198820543 17.657384948227897 6.058972198820543 17.594200449491588 L 6.058972198820543 17.530015950755274" stroke-linecap="round" />
</g>
<g transform="matrix(1 0 0 1 23.1609098568 13.3397775346)" id="XZcibVDMjFjsRnq0Aotkg"  >
<path style="stroke: rgb(0,0,0); stroke-width: 1; stroke-dasharray: none; stroke-linecap: round; stroke-dashoffset: 0; stroke-linejoin: round; stroke-miterlimit: 10; fill: none; fill-rule: nonzero; opacity: 1;"  transform=" translate(-23.1609098568, -13.3397775346)" d="M 25.52079780960403 3.5050572312944523 Q 25.51979780960403 3.5040572312944525 25.498736310025258 3.482995731715682 Q 25.477674810446487 3.4619342321369118 25.41449031171018 3.419811232979372 Q 25.35130581297387 3.377688233821832 25.28812131423756 3.335565234664292 Q 25.224936815501252 3.2934422355067516 25.140690817186172 3.251319236349212 Q 25.056444818871093 3.209196237191672 24.97219882055601 3.188134737612902 Q 24.887952822240926 3.167073238034132 24.86689132266216 3.167073238034132 Q 24.845829823083392 3.167073238034132 24.82476832350462 3.167073238034132 Q 24.80370682392585 3.167073238034132 24.76158382476831 3.124950238876592 Q 24.719460825610767 3.0828272397190517 24.635214827295687 3.061765740140282 Q 24.550968828980608 3.040704240561512 24.42459983150799 3.019642740982742 Q 24.298230834035373 2.998581241403972 24.12973883740521 2.956458242246432 Q 23.961246840775047 2.9143352430888916 23.75063184498735 2.8722122439313518 Q 23.540016849199652 2.830089244773812 23.32940185341195 2.7879662456162717 Q 23.11878685762425 2.7458432464587315 22.95029486099409 2.7247817468799616 Q 22.781802864363932 2.7037202473011916 22.63437236731254 2.7037202473011916 Q 22.48694187026115 2.7037202473011916 22.42375737152484 2.7037202473011916 Q 22.36057287278853 2.7037202473011916 22.29738837405222 2.7037202473011916 Q 22.234203875315906 2.7037202473011916 22.149957877000826 2.7037202473011916 Q 22.065711878685747 2.7037202473011916 21.960404380791896 2.7037202473011916 Q 21.855096882898046 2.7037202473011916 21.728727885425428 2.745843246458732 Q 21.60235888795281 2.787966245616272 21.51811288963773 2.830089244773812 Q 21.43386689132265 2.8722122439313518 21.349620893007568 2.9143352430888916 Q 21.265374894692485 2.9564582422464314 21.181128896377405 2.9985812414039716 Q 21.096882898062326 3.040704240561512 21.033698399326017 3.103888739297822 Q 20.970513900589708 3.167073238034132 20.88626790227463 3.209196237191672 Q 20.80202190395955 3.251319236349212 20.675652906486928 3.314503735085522 Q 20.549283909014306 3.377688233821832 20.465037910699227 3.4408727325581423 Q 20.380791912384147 3.5040572312944525 20.296545914069068 3.567241730030762 Q 20.212299915753988 3.630426228767072 20.14911541701768 3.693610727503382 Q 20.08593091828137 3.756795226239692 20.022746419545058 3.8410412245547723 Q 19.959561920808746 3.9252872228698523 19.875315922493666 4.009533221184933 Q 19.791069924178586 4.0937792195000124 19.727885425442278 4.199086717393863 Q 19.66470092670597 4.304394215287712 19.622577927548427 4.388640213602793 Q 19.580454928390886 4.4728862119178725 19.517270429654577 4.599255209390492 Q 19.454085930918268 4.725624206863112 19.39090143218196 4.830931704756963 Q 19.32771693344565 4.936239202650813 19.264532434709338 5.0626082001234325 Q 19.201347935973025 5.188977197596052 19.138163437236717 5.336407694647442 Q 19.074978938500408 5.483838191698832 19.0117944397641 5.610207189171453 Q 18.94860994102779 5.736576186644073 18.90648694187025 5.884006683695463 Q 18.864363942712707 6.031437180746853 18.801179443976398 6.157806178219473 Q 18.73799494524009 6.284175175692092 18.695871946082548 6.410544173164713 Q 18.653748946925006 6.536913170637333 18.611625947767468 6.642220668531183 Q 18.56950294860993 6.747528166425034 18.52737994945239 6.958143162212734 Q 18.485256950294847 7.168758158000434 18.464195450716076 7.358311654209364 Q 18.443133951137305 7.547865150418294 18.401010951979767 7.758480146205994 Q 18.35888795282223 7.9690951419936935 18.316764953664688 8.221833136938935 Q 18.274641954507146 8.474571131884176 18.232518955349608 8.622001628935564 Q 18.19039595619207 8.769432125986953 18.14827295703453 8.958985622195883 Q 18.106149957876987 9.148539118404813 18.085088458298216 9.317031115034974 Q 18.064026958719445 9.485523111665135 18.021903959561907 9.654015108295294 Q 17.97978096040437 9.822507104925453 17.9587194608256 10.033122100713154 Q 17.937657961246828 10.243737096500855 17.87447346251052 10.475413591867325 Q 17.81128896377421 10.707090087233794 17.76916596461667 10.938766582600264 Q 17.727042965459127 11.170443077966734 17.727042965459127 11.359996574175664 Q 17.727042965459127 11.549550070384594 17.705981465880356 11.760165066172295 Q 17.684919966301585 11.970780061959996 17.684919966301585 12.202456557326466 Q 17.684919966301585 12.434133052692935 17.663858466722818 12.602625049323095 Q 17.64279696714405 12.771117045953254 17.64279696714405 12.981732041740955 Q 17.64279696714405 13.192347037528656 17.64279696714405 13.360839034158815 Q 17.64279696714405 13.529331030788974 17.64279696714405 13.676761527840364 Q 17.64279696714405 13.824192024891754 17.64279696714405 14.034807020679455 Q 17.64279696714405 14.245422016467156 17.663858466722818 14.434975512676086 Q 17.684919966301585 14.624529008885016 17.684919966301585 14.793021005515175 Q 17.684919966301585 14.961513002145335 17.705981465880356 15.151066498354265 Q 17.727042965459127 15.340619994563195 17.748104465037898 15.509111991193356 Q 17.76916596461667 15.677603987823517 17.832350463352977 15.846095984453676 Q 17.895534962089286 16.014587981083835 17.937657961246828 16.246264476450307 Q 17.97978096040437 16.477940971816775 18.021903959561907 16.667494468025705 Q 18.064026958719445 16.857047964234635 18.106149957876987 17.004478461286027 Q 18.14827295703453 17.151908958337415 18.211457455770837 17.299339455388804 Q 18.274641954507146 17.446769952440196 18.316764953664688 17.594200449491588 Q 18.35888795282223 17.741630946542976 18.422072451558538 17.867999944015597 Q 18.485256950294847 17.99436894148822 18.569502948609927 18.18392243769715 Q 18.653748946925006 18.37347593390608 18.73799494524009 18.541967930536238 Q 18.822240943555173 18.710459927166397 18.88542544229148 18.857890424217786 Q 18.94860994102779 19.005320921269178 18.990732940185328 19.1316899187418 Q 19.032855939342866 19.258058916214416 19.074978938500408 19.384427913687038 Q 19.11710193765795 19.51079691115966 19.159224936815487 19.616104409053506 Q 19.201347935973025 19.721411906947356 19.285593934288105 19.847780904419977 Q 19.369839932603185 19.9741499018926 19.411962931760726 20.12158039894399 Q 19.454085930918268 20.26901089599538 19.517270429654577 20.416441393046767 Q 19.580454928390886 20.56387189009816 19.601516427969656 20.73236388672832 Q 19.622577927548427 20.900855883358478 19.706823925863507 21.04828638040987 Q 19.791069924178586 21.19571687746126 19.8542544229149 21.343147374512647 Q 19.91743892165121 21.49057787156404 20.04380791912383 21.61694686903666 Q 20.170176916596446 21.743315866509278 20.296545914069068 21.8696848639819 Q 20.42291491154169 21.99605386145452 20.50716090985677 22.122422858927138 Q 20.591406908171848 22.24879185639976 20.6967144060657 22.33303785471484 Q 20.80202190395955 22.417283853029918 20.88626790227463 22.501529851344998 Q 20.970513900589708 22.585775849660077 21.01263689974725 22.648960348396386 Q 21.05475989890479 22.7121448471327 21.22325189553495 22.81745234502655 Q 21.39174389216511 22.9227598429204 21.49705139005896 23.00700584123548 Q 21.60235888795281 23.09125183955056 21.70766638584666 23.175497837865638 Q 21.81297388374051 23.259743836180718 21.93934288121313 23.32292833491703 Q 22.065711878685747 23.38611283365334 22.149957877000826 23.428235832810877 Q 22.234203875315906 23.47035883196842 22.360572872788527 23.51248183112596 Q 22.48694187026115 23.5546048302835 22.63437236731254 23.596727829441036 Q 22.781802864363932 23.638850828598578 22.95029486099409 23.68097382775612 Q 23.11878685762425 23.72309682691366 23.2240943555181 23.744158326492432 Q 23.32940185341195 23.7652198260712 23.49789385004211 23.807342825228737 Q 23.66638584667227 23.84946582438628 23.83487784330243 23.89158882354382 Q 24.00336983993259 23.93371182270136 24.15080033698398 23.95477332228013 Q 24.298230834035373 23.9758348218589 24.46672283066553 23.9758348218589 Q 24.63521482729569 23.9758348218589 24.80370682392585 23.9758348218589 Q 24.97219882055601 23.9758348218589 25.14069081718617 23.9758348218589 Q 25.309182813816328 23.9758348218589 25.498736310025258 23.9758348218589 Q 25.688289806234188 23.9758348218589 25.877843302443118 23.9758348218589 Q 26.067396798652048 23.9758348218589 26.256950294860978 23.9758348218589 Q 26.446503791069908 23.9758348218589 26.61499578770007 23.9758348218589 Q 26.783487784330234 23.9758348218589 26.973041280539164 23.9758348218589 Q 27.162594776748094 23.9758348218589 27.331086773378253 23.95477332228013 Q 27.499578770008412 23.93371182270136 27.710193765796113 23.93371182270136 Q 27.920808761583814 23.93371182270136 28.089300758213973 23.93371182270136 Q 28.257792754844132 23.93371182270136 28.38416175231675 23.93371182270136 Q 28.510530749789368 23.93371182270136 28.55265374894691 23.93371182270136 Q 28.59477674810445 23.93371182270136 28.636899747261992 23.91265032312259 Q 28.679022746419534 23.89158882354382 28.679022746419534 23.84946582438628 L 28.679022746419534 23.80634282522874" stroke-linecap="round" />
</g>
<g transform="matrix(1 0 0 1 26.3196347936 22.7126448471)" id="Hm2lsqdO-RDwXIXtCCczx"  >
<path style="stroke: rgb(0,0,0); stroke-width: 1; stroke-dasharray: none; stroke-linecap: round; stroke-dashoffset: 0; stroke-linejoin: round; stroke-miterlimit: 10; fill: none; fill-rule: nonzero; opacity: 1;"  transform=" translate(-26.3196347936, -22.7126448471)" d="M 23.202032855939326 13.655700028261595 Q 23.203032855939327 13.655700028261595 23.26621735467564 13.655700028261595 Q 23.32940185341195 13.655700028261595 23.39258635214826 13.655700028261595 Q 23.45577085088457 13.655700028261595 23.58213984835719 13.676761527840366 Q 23.70850884582981 13.697823027419137 23.8559393428812 13.697823027419137 Q 24.00336983993259 13.697823027419137 24.12973883740521 13.697823027419137 Q 24.25610783487783 13.697823027419137 24.42459983150799 13.718884526997906 Q 24.59309182813815 13.739946026576675 24.80370682392585 13.761007526155446 Q 25.01432181971355 13.782069025734216 25.224936815501252 13.782069025734216 Q 25.435551811288953 13.782069025734216 25.709351305812962 13.824192024891756 Q 25.983150800336972 13.866315024049296 26.278011794439752 13.866315024049296 Q 26.572872788542533 13.866315024049296 26.804549283909 13.866315024049296 Q 27.03622577927547 13.866315024049296 27.26790227464194 13.887376523628065 Q 27.499578770008412 13.908438023206834 27.773378264532422 13.908438023206834 Q 28.04717775905643 13.908438023206834 28.23673125526536 13.929499522785605 Q 28.42628475147429 13.950561022364376 28.552653748946913 13.950561022364376 Q 28.679022746419534 13.950561022364376 28.826453243470922 13.950561022364376 Q 28.97388374052231 13.950561022364376 29.07919123841616 13.971622521943145 Q 29.18449873631001 13.992684021521914 29.226621735467553 13.992684021521914 Q 29.268744734625095 13.992684021521914 29.310867733782633 13.992684021521914 Q 29.35299073294017 13.992684021521914 29.35299073294017 14.013745521100684 Q 29.35299073294017 14.034807020679455 29.37405223251894 14.245422016467156 Q 29.395113732097713 14.456037012254857 29.416175231676483 14.708775007200096 Q 29.437236731255254 14.961513002145335 29.437236731255254 15.298496995405655 Q 29.437236731255254 15.635480988665975 29.437236731255254 15.993526481505066 Q 29.437236731255254 16.351571974344157 29.437236731255254 16.68855596760448 Q 29.437236731255254 17.025539960864798 29.437236731255254 17.404646953282658 Q 29.437236731255254 17.783753945700518 29.437236731255254 18.036491940645757 Q 29.437236731255254 18.289229935590996 29.395113732097713 18.457721932221155 Q 29.35299073294017 18.626213928851318 29.310867733782633 18.857890424217786 Q 29.268744734625095 19.089566919584257 29.226621735467553 19.3423049145295 Q 29.18449873631001 19.59504290947474 29.14237573715247 19.847780904419977 Q 29.10025273799493 20.100518899365216 29.05812973883739 20.353256894310455 Q 29.016006739679852 20.605994889255697 28.952822240943544 20.753425386307086 Q 28.889637742207235 20.900855883358478 28.868576242628464 21.00616338125233 Q 28.847514743049693 21.11147087914618 28.78433024431338 21.2378398766188 Q 28.72114574557707 21.364208874091418 28.67902274641953 21.511639371142806 Q 28.636899747261992 21.659069868194198 28.636899747261992 21.78543886566682 Q 28.636899747261992 21.911807863139437 28.636899747261992 22.101361359348367 Q 28.636899747261992 22.2909148555573 28.61583824768322 22.501529851344998 Q 28.59477674810445 22.7121448471327 28.57371524852568 22.859575344184087 Q 28.55265374894691 23.00700584123548 28.4894692502106 23.15443633828687 Q 28.42628475147429 23.30186683533826 28.38416175231675 23.47035883196842 Q 28.34203875315921 23.638850828598578 28.29991575400167 23.87052732396505 Q 28.257792754844132 24.10220381933152 28.23673125526536 24.312818815119222 Q 28.21566975568659 24.52343381090692 28.19460825610782 24.691925807537082 Q 28.17354675652905 24.86041780416724 28.13142375737151 24.965725302061088 Q 28.089300758213973 25.07103279995494 28.005054759898893 25.19740179742756 Q 27.920808761583814 25.32377079490018 27.8576242628475 25.40801679321526 Q 27.79443976411119 25.49226279153034 27.75231676495365 25.59757028942419 Q 27.710193765796113 25.70287778731804 27.66807076663857 25.89243128352697 Q 27.62594776748103 26.0819847797359 27.56276326874472 26.27153827594483 Q 27.499578770008412 26.46109177215376 27.45745577085087 26.62958376878392 Q 27.41533277169333 26.79807576541408 27.35214827295702 26.966567762044242 Q 27.28896377422071 27.1350597586744 27.24684077506317 27.240367256568252 Q 27.20471777590563 27.345674754462102 27.18365627632686 27.47204375193472 Q 27.162594776748094 27.59841274940734 27.120471777590552 27.724781746879962 Q 27.07834877843301 27.85115074435258 27.07834877843301 27.9775197418252 Q 27.07834877843301 28.103888739297822 27.05728727885424 28.25131923634921 Q 27.03622577927547 28.398749733400603 27.03622577927547 28.54618023045199 Q 27.03622577927547 28.69361072750338 26.99410278011793 28.819979724976 Q 26.951979780960393 28.94634872244862 26.930918281381622 29.05165622034247 Q 26.90985678180285 29.15696371823632 26.88879528222408 29.2412097165514 Q 26.86773378264531 29.32545571486648 26.84667228306654 29.36757871402402 Q 26.825610783487768 29.409701713181562 26.825610783487768 29.430763212760333 Q 26.825610783487768 29.451824712339103 26.825610783487768 29.49394771149664 Q 26.825610783487768 29.53607071065418 26.825610783487768 29.599255209390492 Q 26.825610783487768 29.662439708126804 26.825610783487768 29.746685706441884 Q 26.825610783487768 29.830931704756964 26.825610783487768 29.936239202650814 Q 26.825610783487768 30.041546700544664 26.825610783487768 30.146854198438515 Q 26.825610783487768 30.252161696332365 26.804549283909 30.336407694647445 Q 26.783487784330234 30.420653692962524 26.762426284751463 30.504899691277604 Q 26.741364785172692 30.589145689592684 26.72030328559392 30.673391687907763 Q 26.69924178601515 30.757637686222843 26.67818028643638 30.841883684537923 Q 26.65711878685761 30.926129682853002 26.65711878685761 31.01037568116808 Q 26.65711878685761 31.09462167948316 26.65711878685761 31.15780617821947 Q 26.65711878685761 31.22099067695578 26.65711878685761 31.26311367611332 Q 26.65711878685761 31.305236675270862 26.65711878685761 31.347359674428404 Q 26.65711878685761 31.389482673585945 26.65711878685761 31.410544173164713 Q 26.65711878685761 31.43160567274348 26.65711878685761 31.45266717232225 Q 26.65711878685761 31.47372867190102 26.65711878685761 31.53691317063733 Q 26.65711878685761 31.60009766937364 26.65711878685761 31.684343667688722 L 26.65711878685761 31.769589666003807" stroke-linecap="round" />
</g>
<g transform="matrix(1 0 0 1 209 166.3463186709)" id="p1rIMwDvs64l5moo_wDt9"  >
<path style="stroke: rgb(0,0,0); stroke-width: 1; stroke-dasharray: none; stroke-linecap: round; stroke-dashoffset: 0; stroke-linejoin: round; stroke-miterlimit: 10; fill: none; fill-rule: nonzero; opacity: 1;"  transform=" translate(-209, -166.3463186709)" d="M 208.99899999999977 166.34631867093077 L 209.00099999999978 166.34631867093077" stroke-linecap="round" />
</g>
</svg>